<?xml version="1.0" encoding="iso-8859-1"?>
<!-- Uploaded to: SVG Repo, www.svgrepo.com, Generator: SVG Repo Mixer Tools -->
<svg version="1.1" id="Layer_1" xmlns="http://www.w3.org/2000/svg" xmlns:xlink="http://www.w3.org/1999/xlink" 
	 viewBox="0 0 511.996 511.996" xml:space="preserve">
<rect style="fill:#AA603B;" width="511.996" height="511.996"/>
<g>
	<rect x="135.998" y="336.001" style="fill:#B3B3B3;" width="80.003" height="32"/>
	<rect x="391.996" y="336.001" style="fill:#B3B3B3;" width="80.003" height="55.995"/>
</g>
<rect x="135.998" y="367.998" style="fill:#99C6E4;" width="80.003" height="24"/>
<g>
	<rect x="295.994" y="336.001" style="fill:#F2BF7E;" width="64.005" height="88.003"/>
	<rect x="295.994" y="127.999" style="fill:#F2BF7E;" width="64.005" height="88.003"/>
</g>
<rect x="391.996" y="159.996" style="fill:#99C6E4;" width="80.003" height="24"/>
<rect x="391.996" y="127.999" style="fill:#B3B3B3;" width="80.003" height="32"/>
<rect x="39.996" y="127.999" style="fill:#F2BF7E;" width="63.994" height="88.003"/>
<rect x="135.998" y="151.997" style="fill:#99C6E4;" width="80.003" height="32"/>
<rect x="135.998" y="127.999" style="fill:#B3B3B3;" width="80.003" height="23.823"/>
<rect x="39.996" y="336.001" style="fill:#F2BF7E;" width="63.994" height="88.003"/>
<rect x="8" y="424.004" style="fill:#C5FFCA;" width="495.997" height="80.003"/>
<rect x="8" y="479.999" style="fill:#F2BF7E;" width="495.997" height="24"/>
<rect x="8" y="216.504" style="fill:#C5FFCA;" width="495.997" height="80.003"/>
<rect x="8" y="272.499" style="fill:#F2BF7E;" width="495.997" height="24"/>
<rect x="8" y="8.997" style="fill:#C5FFCA;" width="495.997" height="80.003"/>
<rect x="8" y="64.999" style="fill:#F2BF7E;" width="495.997" height="24"/>
<rect x="56.539" y="184.277" width="15.705" height="15.705"/>
<rect x="312.014" y="184.277" width="15.705" height="15.705"/>
<rect x="56.539" y="391.588" width="15.705" height="15.705"/>
<rect x="312.014" y="391.588" width="15.705" height="15.705"/>
<rect x="48.163" y="263.851" width="416.716" height="15.705"/>
<path d="M480.585,120.412h-96.326v72.245h96.326V120.412z M464.88,136.117v15.705h-64.916v-15.705H464.88z M399.964,176.951v-9.423
	h64.916v9.423H399.964z"/>
<path d="M367.506,208.147v-87.736h-79.574v87.736h-175.9v-87.736H32.458v87.736H0.148v95.704h511.706v-95.704H367.506z
	 M303.638,136.117h48.163v72.03h-48.163V136.117z M48.163,136.117h48.163v72.03H48.163V136.117z M496.147,263.854h-15.562v15.705
	h15.562v8.587H15.853v-8.587h16.605v-15.705H15.853v-40.002h480.295v40.002H496.147z"/>
<path d="M223.017,120.412h-95.279v72.245h95.279V120.412z M207.311,176.951h-63.869v-16.752h63.869V176.951z M207.311,144.493
	h-63.869v-8.376h63.869V144.493z"/>
<rect x="48.163" y="56.539" width="416.716" height="15.705"/>
<path d="M0.148,0.147v95.706h511.706V0.147H0.148z M15.853,80.147v-7.899h16.605V56.543H15.853V15.852h480.295v40.691h-15.563
	v15.705h15.562v7.899H15.853z"/>
<rect x="48.163" y="471.162" width="416.716" height="15.705"/>
<path d="M367.506,416.147v-88.423h-79.574v88.423h-175.9v-88.423H32.458v88.423H0.148v95.706h511.706v-95.706H367.506z
	 M303.638,343.429h48.163v72.718h-48.163V343.429z M48.163,343.429h48.163v72.718H48.163V343.429z M15.853,496.147v-9.276h16.605
	v-15.705H15.853v-39.314h480.295v39.314h-15.563v15.705h15.562v9.276H15.853z"/>
<path d="M223.017,327.723h-95.279v72.245h95.279V327.723z M207.311,343.429v16.752h-63.869v-16.752H207.311z M143.443,384.263
	v-8.376h63.869v8.376H143.443z"/>
<path d="M480.585,327.723h-96.326v72.245h96.326V327.723z M464.88,384.263h-64.916v-40.834h64.916V384.263z"/>
</svg>