<?xml version="1.0" encoding="iso-8859-1"?>
<!-- Uploaded to: SVG Repo, www.svgrepo.com, Generator: SVG Repo Mixer Tools -->
<svg version="1.1" id="Layer_1" xmlns="http://www.w3.org/2000/svg" xmlns:xlink="http://www.w3.org/1999/xlink" 
	 viewBox="0 0 512 512" xml:space="preserve">
<polyline style="fill:#F2BF7E;" points="152.976,423.024 152.976,502.114 503.675,502.114 503.675,7.805 9.366,7.805 9.366,303.35 
	152.976,303.35 152.976,358.504 "/>
<rect x="349.326" y="9.46" style="fill:#B3B3B3;" width="155.65" height="168.356"/>
<rect x="294.088" y="302.153" style="fill:#C5FFCA;" width="210.763" height="201.845"/>
<polyline style="fill:#AA603B;" points="296.585,351.22 337.171,351.22 337.171,470.894 296.585,470.894 "/>
<g>
	<polyline style="fill:#FFFFFF;" points="352.78,95.22 375.675,95.22 375.675,144.13 352.78,144.13 	"/>
	<path style="fill:#FFFFFF;" d="M503.74,151.576c-17.617,0-31.899-14.282-31.899-31.899s14.282-31.899,31.899-31.899"/>
	<rect x="376.143" y="8.031" style="fill:#FFFFFF;" width="103.67" height="55.824"/>
</g>
<rect x="384.114" y="390.816" style="fill:#B3B3B3;" width="119.623" height="79.745"/>
<g>
	<rect x="471.841" y="390.816" style="fill:#FFFFFF;" width="31.899" height="79.745"/>
	<polyline style="fill:#FFFFFF;" points="152.851,167.526 33.229,167.526 33.229,127.651 152.851,127.651 	"/>
</g>
<rect x="33.229" y="103.732" style="fill:#B3B3B3;" width="119.623" height="23.925"/>
<g>
	<rect x="184.747" y="471.935" style="fill:#AA603B;" width="79.745" height="30.143"/>
	<rect x="160.822" y="8.031" style="fill:#AA603B;" width="191.396" height="55.824"/>
	<rect x="232.596" y="111.703" style="fill:#AA603B;" width="47.848" height="111.641"/>
</g>
<rect x="184.747" y="8.031" style="fill:#C5FFCA;" width="63.802" height="31.899"/>
<path d="M89.496,407.415h-16.65v-0.646c0-5.601,0.646-11.178,1.92-16.578l16.205,3.823c-0.978,4.148-1.475,8.439-1.475,12.754
	V407.415z M92.908,387.598l-15.616-5.779c2.022-5.463,4.718-10.68,8.015-15.505l13.748,9.392
	C96.527,379.409,94.459,383.41,92.908,387.598z M103.173,370.402l-12.511-10.987c3.842-4.375,8.215-8.284,12.996-11.615
	l9.519,13.662C109.496,364.027,106.13,367.034,103.173,370.402z M118.914,357.959l-7.802-14.71
	c5.146-2.73,10.623-4.832,16.276-6.249l4.048,16.152C127.085,354.242,122.873,355.859,118.914,357.959z"/>
<path d="M288.771,231.675h-64.498V103.377h64.498V231.675z M240.923,215.024h31.198v-94.997h-31.198V215.024z"/>
<g>
	<rect x="199.805" y="110.829" style="fill:#FFFFFF;" width="16.65" height="16.65"/>
	<rect x="199.805" y="159.74" style="fill:#FFFFFF;" width="16.65" height="15.61"/>
	<rect x="199.805" y="207.61" style="fill:#FFFFFF;" width="16.65" height="15.61"/>
	<rect x="295.545" y="110.829" style="fill:#FFFFFF;" width="16.65" height="16.65"/>
	<rect x="295.545" y="159.74" style="fill:#FFFFFF;" width="16.65" height="15.61"/>
	<rect x="295.545" y="207.61" style="fill:#FFFFFF;" width="16.65" height="15.61"/>
	<circle style="fill:#FFFFFF;" cx="392.096" cy="119.675" r="15.949"/>
</g>
<path d="M419.828,220.819c-3.948-1.618-7.509-3.961-10.583-6.962l-11.632,11.913c4.613,4.504,9.963,8.022,15.902,10.455
	L419.828,220.819z"/>
<path d="M383.903,200.83c1.285,6.314,3.821,12.244,7.535,17.628l13.705-9.456c-2.433-3.526-4.091-7.393-4.925-11.494L383.903,200.83
	z"/>
<path d="M377.683,338.301c2.584,5.845,6.252,11.094,10.901,15.6l11.59-11.955c-3.103-3.009-5.548-6.501-7.262-10.378
	L377.683,338.301z"/>
<path d="M416.826,350.677c-4.137-0.784-8.063-2.379-11.67-4.742l-9.124,13.928c5.445,3.567,11.398,5.981,17.694,7.174
	L416.826,350.677z"/>
<rect x="471.415" y="342.894" style="fill:#FFFFFF;" width="16.65" height="23.935"/>
<path d="M0,0.52v311.154h143.61v22.987c-2.718,0.037-5.266,0.213-7.891,0.54l2.114,16.522c1.916-0.238,3.942-0.372,5.779-0.411
	v7.191h16.65v-63.48H16.65V17.171h136.298l-0.528,56.195h190.994v110.309h39.545v7.285h16.65v-7.285h8.325v-16.65h-47.87v-14.569
	H384v-9.897c2.533,0.899,5.256,1.392,8.093,1.392c13.385,0,24.274-10.889,24.274-24.275c0-13.385-10.889-24.274-24.274-24.274
	c-2.838,0-5.56,0.494-8.093,1.392v-8.859h-23.935V17.171h7.754v56.048h120.322V17.171h7.209v63.176
	c-17.999,3.883-31.898,20.039-31.898,39.33s13.899,35.449,31.898,39.33v8.017h-64.52v56.168c-1.659-0.059-3.317-0.242-4.943-0.559
	l-3.181,16.343c2.672,0.52,5.4,0.801,8.124,0.866v0.027h1.138h8.227h7.285v-56.195h47.87v111.35h-64.52v56.195h-7.285v16.65h7.285
	h8.325h8.325v-56.195h47.87v70.819H375.793v96.398H495.35v15.938H303.87V480.26h40.585V342.894H303.87v-31.22h69.724v7.374
	c0.001,3.39,0.368,6.788,1.094,10.101l16.266-3.559c-0.469-2.147-0.709-4.35-0.71-6.545v-7.371h10.406v-16.65H287.22v199.805H272.65
	v-31.22h-96.78v31.22h-15.61v-80.13H72.846v16.65h70.764v80.13H512v-32.588v-96.398V0.52H0z M192.52,17.171h46.829V31.74H192.52
	V17.171z M343.415,56.715H169.228l0.37-39.545h6.271v31.22H256v-31.22h87.415V56.715z M392.093,112.053
	c4.204,0,7.624,3.421,7.624,7.624c0,4.204-3.42,7.625-7.624,7.625c-4.204,0-7.624-3.421-7.624-7.625
	C384.469,115.473,387.889,112.053,392.093,112.053z M367.35,104.585v31.22h-7.285v-31.22H367.35z M471.491,56.569h-87.021V17.397
	h87.021V56.569z M303.87,359.545h23.935V463.61H303.87V359.545z M256,494.829h-63.48V480.26H256V494.829z M463.089,462.241h-70.646
	v-63.097h70.646V462.241z M495.35,462.241h-15.61v-63.097h15.61V462.241z M495.35,141.646c-8.699-3.427-15.248-11.979-15.248-21.969
	c0-9.989,6.549-18.541,15.248-21.968V141.646z"/>
<rect x="24.976" y="271.089" style="fill:#FFFFFF;" width="128" height="16.65"/>
<path d="M24.904,95.403v23.925v16.65v39.874h136.272v-39.874v-16.65V95.403L24.904,95.403L24.904,95.403z M144.524,159.2H41.554
	v-23.223h102.971V159.2H144.524z M41.554,119.327v-7.274h102.971v7.274H41.554z"/>
</svg>