<?xml version="1.0" encoding="iso-8859-1"?>
<!-- Uploaded to: SVG Repo, www.svgrepo.com, Generator: SVG Repo Mixer Tools -->
<svg version="1.1" id="Layer_1" xmlns="http://www.w3.org/2000/svg" xmlns:xlink="http://www.w3.org/1999/xlink" 
	 viewBox="0 0 512 512" xml:space="preserve">
<rect x="7.768" y="51.809" style="fill:#F2BF7E;" width="496.463" height="408.381"/>
<polygon style="fill:#AA603B;" points="296.038,243.989 215.963,243.989 215.963,163.914 256.001,139.891 296.038,163.914 "/>
<g>
	<rect x="111.863" y="284.027" style="fill:#FFFFFF;" width="288.274" height="48.049"/>
	<rect x="7.768" y="51.809" style="fill:#FFFFFF;" width="496.463" height="32.03"/>
</g>
<rect x="7.768" y="51.809" style="fill:#B3B3B3;" width="184.169" height="32.03"/>
<path d="M407.903,339.839H104.097v-63.581h303.805V339.839z M119.634,324.303h272.732v-32.508H119.634V324.303z"/>
<rect x="144.137" y="355.951" width="96.326" height="15.536"/>
<g>
	<rect x="264.286" y="355.951" style="fill:#C5FFCA;" width="15.536" height="15.536"/>
	<rect x="264.286" y="380.809" style="fill:#C5FFCA;" width="15.536" height="15.536"/>
	<rect x="264.286" y="404.632" style="fill:#C5FFCA;" width="15.536" height="15.536"/>
</g>
<rect x="296.394" y="355.951" width="71.468" height="15.536"/>
<rect x="296.394" y="380.809" width="71.468" height="15.536"/>
<rect x="296.394" y="404.632" width="71.468" height="15.536"/>
<rect x="135.851" y="300.019" width="15.536" height="15.536"/>
<rect x="167.96" y="300.019" width="15.536" height="15.536"/>
<rect x="200.068" y="300.019" width="15.536" height="15.536"/>
<g>
	<rect x="247.713" y="171.585" style="fill:#FFFFFF;" width="15.536" height="24.858"/>
	<rect x="32.274" y="76.294" style="fill:#FFFFFF;" width="15.536" height="15.536"/>
	<rect x="63.347" y="76.294" style="fill:#FFFFFF;" width="16.572" height="15.536"/>
	<rect x="95.456" y="76.294" style="fill:#FFFFFF;" width="16.572" height="15.536"/>
</g>
<path d="M0,44.041v423.919h512V44.041H0z M15.536,452.423V59.577h480.927v16.718H127.566v15.536h368.899v360.592H15.536V452.423z"/>
<rect x="408.257" y="115.653" style="fill:#C5FFCA;" width="64.217" height="15.536"/>
<path d="M303.646,178.831l12.298,7.686l8.234-13.176l-68.177-42.611l-68.177,42.611l8.234,13.176l12.298-7.686v56.972h-16.572
	v15.536h128.435v-15.536h-16.572V178.831z M223.892,169.121l32.109-20.068l32.109,20.068v66.682h-24.858v-15.536h-15.536v15.536
	h-23.823L223.892,169.121L223.892,169.121z"/>
</svg>