<?xml version="1.0" standalone="no"?>
<!DOCTYPE svg PUBLIC "-//W3C//DTD SVG 20010904//EN"
 "http://www.w3.org/TR/2001/REC-SVG-20010904/DTD/svg10.dtd">
<svg version="1.0" xmlns="http://www.w3.org/2000/svg"
 width="461.000000pt" height="461.000000pt" viewBox="0 0 461.000000 461.000000"
 preserveAspectRatio="xMidYMid meet">

<g transform="translate(0.000000,461.000000) scale(0.100000,-0.100000)"
fill="#000000" stroke="none">
<path d="M0 2305 l0 -2305 2305 0 2305 0 0 2305 0 2305 -2305 0 -2305 0 0
-2305z m3438 2208 l3 -33 -105 0 -106 0 0 28 c0 16 3 32 7 36 4 4 50 5 103 4
l95 -3 3 -32z m-378 -93 l0 -120 415 0 415 0 2 -242 3 -243 80 -3 c57 -2 82
-7 88 -17 11 -20 77 -20 77 -1 0 7 9 16 20 19 15 4 20 14 20 41 l0 36 -105 0
-105 0 0 30 c0 29 1 30 50 30 43 0 50 3 50 20 0 16 7 20 31 20 64 0 108 43
109 105 0 22 -7 51 -16 64 -20 28 -79 54 -105 46 -15 -5 -19 -2 -19 14 0 18
-6 21 -50 21 l-50 0 0 150 c0 127 2 150 15 150 13 0 15 -20 15 -120 l0 -120
265 0 265 0 0 121 c0 92 3 120 13 117 8 -3 13 -42 15 -135 l3 -130 -39 -15
c-21 -8 -52 -32 -68 -53 -26 -34 -29 -46 -29 -109 0 -85 23 -123 92 -157 72
-35 51 -44 -105 -47 l-142 -3 0 -113 c0 -81 -4 -122 -15 -142 -28 -54 -21 -64
40 -64 l55 0 0 120 0 120 105 0 105 0 -2 -237 -3 -238 -142 -3 -143 -3 0 -124
c0 -104 -2 -125 -15 -125 -10 0 -15 -11 -15 -35 l0 -35 55 0 55 0 0 125 0 126
103 -3 102 -3 3 -152 3 -153 -263 -2 -263 -3 -3 -207 -2 -208 262 -2 263 -3 0
-35 0 -35 -415 0 -415 0 -3 33 -3 32 90 0 91 0 0 300 0 300 -90 0 -90 0 0 70
0 70 149 0 149 0 7 -41 c5 -30 11 -39 22 -35 8 3 23 6 34 6 15 0 19 7 19 35 0
28 4 35 20 35 16 0 20 7 20 35 l0 35 -247 -2 -248 -3 -3 -433 -2 -433 -28 3
c-26 3 -27 6 -30 66 l-3 62 -209 0 -210 0 0 -65 0 -65 -35 0 -35 0 0 175 0
175 -65 0 -65 0 0 70 0 70 -70 0 -70 0 0 -70 0 -70 -40 0 c-42 0 -55 18 -20
27 11 3 20 8 20 12 0 3 3 16 6 27 4 17 0 23 -20 28 -38 9 -35 37 3 30 23 -5
32 -2 41 17 11 20 10 25 -16 46 -27 21 -30 22 -41 6 -11 -14 -13 7 -13 115 l0
132 140 0 140 0 0 -45 c0 -33 -4 -45 -14 -45 -8 0 -17 -4 -20 -9 -10 -16 6
-71 20 -71 8 0 14 -7 14 -15 0 -10 11 -15 35 -15 l35 0 0 140 0 140 -312 2
-313 3 -3 603 -2 602 300 0 300 0 0 -120z m1390 35 l0 -85 -187 2 -188 3 -3
83 -3 82 191 0 190 0 0 -85z m-2060 -160 l0 -185 -980 0 -980 0 0 -75 0 -75
980 0 980 0 0 -30 0 -30 -1125 0 -1125 0 0 30 0 30 69 0 c39 0 72 4 76 10 3 5
3 39 -1 75 l-7 65 -73 0 -74 0 0 178 c0 98 3 182 7 185 3 4 512 7 1130 7
l1123 0 0 -185z m2170 -200 c0 -92 -1 -95 -20 -85 -25 13 -50 61 -50 94 0 24
44 86 61 86 5 0 9 -43 9 -95z m-560 0 c0 -58 -2 -65 -20 -65 -18 0 -20 7 -20
58 0 61 4 72 27 72 9 0 13 -17 13 -65z m134 12 c9 -15 7 -21 -8 -32 -35 -26
-74 13 -44 43 16 16 38 12 52 -11z m-3274 -1047 l0 -330 -215 0 -215 0 0 330
0 330 215 0 215 0 0 -330z m1010 285 l0 -35 -290 0 -290 0 0 35 0 35 290 0
290 0 0 -35z m0 -250 l0 -75 -290 0 -290 0 0 75 0 75 290 0 290 0 0 -75z
m2540 -360 l0 -135 -150 0 -150 0 0 135 0 135 150 0 150 0 0 -135z m150 0 l0
-135 -35 0 -35 0 0 135 0 135 35 0 35 0 0 -135z m-1540 -250 l0 -105 735 0
735 0 0 -75 0 -75 -75 0 -75 0 0 -70 0 -70 75 0 75 0 0 -40 0 -40 -2180 0
-2180 0 0 40 0 40 80 0 80 0 0 70 0 70 -80 0 -80 0 0 180 0 180 1445 0 1445 0
0 -105z m1540 -720 l0 -35 -804 0 c-500 0 -807 -4 -811 -10 -3 -5 -3 -21 1
-35 l6 -25 804 0 804 0 0 -790 0 -790 -1050 0 -1050 0 0 860 0 860 1050 0
1050 0 0 -35z m-3700 -585 l0 -330 -215 0 -215 0 0 330 0 330 215 0 215 0 0
-330z m1008 253 l3 -73 -291 0 -290 0 0 75 0 75 288 -2 287 -3 3 -72z m2 -258
l0 -35 -290 0 -290 0 0 35 0 35 290 0 290 0 0 -35z m520 -645 l0 -180 -980 0
-980 0 0 -70 0 -70 980 0 980 0 0 -45 0 -45 -1130 0 -1130 0 0 45 0 45 80 0
80 0 0 70 0 70 -80 0 -80 0 0 180 0 180 1130 0 1130 0 0 -180z"/>
<path d="M2500 4025 l0 -175 300 0 300 0 0 175 0 175 -300 0 -300 0 0 -175z
m520 90 c0 -13 -32 -15 -225 -15 -205 0 -238 3 -218 23 3 4 105 7 225 7 187 0
218 -2 218 -15z m-2 -143 l3 -52 -223 2 -223 3 -3 39 c-6 70 -16 67 225 64
l218 -3 3 -53z"/>
<path d="M3372 3888 l3 -283 138 -3 137 -3 0 286 0 285 -140 0 -140 0 2 -282z"/>
<path d="M4105 3753 c-32 -8 -36 -17 -24 -51 12 -36 27 -40 59 -14 19 16 20
21 9 45 -7 15 -15 26 -18 26 -3 -1 -15 -3 -26 -6z"/>
<path d="M4151 3656 l-22 -24 27 -21 c37 -29 51 -26 59 11 6 24 3 35 -11 45
-24 17 -27 17 -53 -11z"/>
<path d="M4072 3154 c-27 -12 -31 -17 -23 -32 6 -10 17 -25 26 -32 14 -11 20
-10 40 11 23 23 23 25 7 45 -16 20 -19 20 -50 8z"/>
<path d="M2896 3127 c-17 -13 -17 -15 -2 -45 15 -29 18 -30 41 -20 25 11 31
31 19 62 -7 19 -34 21 -58 3z"/>
<path d="M2813 3076 l-28 -25 27 -27 c27 -27 28 -27 48 -9 25 22 25 30 1 61
l-19 25 -29 -25z"/>
<path d="M4139 3074 c-12 -23 -12 -27 6 -40 31 -23 59 -14 63 20 6 49 -45 64
-69 20z"/>
<path d="M500 2880 l0 -70 75 0 75 0 0 70 0 70 -75 0 -75 0 0 -70z"/>
<path d="M430 2160 l0 -70 1885 0 1885 0 0 70 0 70 -1885 0 -1885 0 0 -70z"/>
<path d="M3368 1402 c-75 -48 -142 -91 -147 -97 -7 -7 -3 -18 9 -35 17 -22 22
-23 39 -12 12 6 23 12 26 12 3 0 5 -54 5 -120 l0 -120 -35 0 c-33 0 -35 -2
-35 -35 l0 -35 280 0 280 0 0 35 c0 33 -2 35 -35 35 l-35 0 0 120 c0 66 2 120
5 120 3 0 14 -6 26 -12 17 -11 22 -10 39 12 20 25 20 25 -1 43 -21 17 -277
178 -282 176 -1 0 -64 -39 -139 -87z m180 -149 l-3 -58 -35 0 -35 0 -3 58 -3
57 41 0 41 0 -3 -57z"/>
<path d="M2842 713 l3 -138 665 0 665 0 3 138 3 137 -671 0 -671 0 3 -137z
m1268 -3 l0 -70 -600 0 -600 0 0 70 0 70 600 0 600 0 0 -70z"/>
<path d="M2984 736 c-12 -31 1 -51 34 -54 31 -3 32 -2 32 32 0 33 -2 36 -30
36 -17 0 -33 -6 -36 -14z"/>
<path d="M3124 736 c-12 -31 1 -51 34 -54 31 -3 32 -2 32 32 0 33 -2 36 -30
36 -17 0 -33 -6 -36 -14z"/>
<path d="M3270 715 c0 -32 2 -35 30 -35 28 0 30 3 30 35 0 32 -2 35 -30 35
-28 0 -30 -3 -30 -35z"/>
<path d="M3020 465 l0 -35 210 0 210 0 0 35 0 35 -210 0 -210 0 0 -35z"/>
<path d="M3682 468 l3 -33 158 -3 157 -3 0 36 0 35 -161 0 -160 0 3 -32z"/>
<path d="M3684 386 c-3 -8 -4 -25 -2 -38 3 -23 3 -23 158 -23 l155 0 0 35 0
35 -153 3 c-126 2 -153 0 -158 -12z"/>
<path d="M3684 276 c-3 -8 -4 -23 -2 -33 3 -16 18 -18 161 -21 l157 -3 0 36 0
35 -155 0 c-126 0 -157 -3 -161 -14z"/>
<path d="M500 1000 l0 -70 75 0 75 0 0 70 0 70 -75 0 -75 0 0 -70z"/>
</g>
</svg>
